<svg xmlns:xlink="http://www.w3.org/1999/xlink" viewBox="0 0 21 24" xmlns="http://www.w3.org/2000/svg" width="21"  height="24" ><path d="M20.997 4.237 21 17.892c.003 1.354-.63 2.297-1.888 2.822l-7.264 3.005c-.888.372-1.757.374-2.637.01l-7.4-3.06C.58 20.15.005 19.174.004 17.87L0 4.68c0-1.8 1.325-2.766 3.1-2.18 1.07.354 2.096.838 3.137 1.273L10.04 5.37c.273.107.667.105.937-.006l6.238-2.648c.495-.207 1.024-.393 1.553-.454 1.335-.153 2.225.665 2.227 1.973zm-5.6 16.788c.087.086.244.37.46.423.37.09.892-.605.818-1.12-.033-.227-.253-.544-.455-.605-.362-.107-.834.577-.824 1.302zm3.558-16.51-.378.104L12.16 7.15c-.38.147-.43.37-.428.712l.006 12.506c0 .15.016.298.027.5l.608-.2 5.984-2.363c.493-.187.62-.446.62-.938l-.01-12.855zm-10.7 10.768-.174.885c-.166.778-.396 1.566-1.122 1.985-.47.27-.56.578-.513 1.026l.1 1.035c.688-.083 1.247-.408 1.51-.943.448-.907.812-1.87 1.1-2.84.26-.9.175-.948-.9-1.148zm-3.337-.954v3.59l-.235.148c-.405-.508-.908-.97-1.186-1.536-.3-.632-.76-.866-1.4-.93.247 2.145 2.426 4.636 3.842 4.512l-.001-4.8c-.002-.893-.026-.913-1.02-.983zM2.234 8.7c.62.2 1.18.565 1.9.098.297-.194.865-.165 1.235-.033.96.345 1.467 1.153 2.003 2.168l-5.55-1.755c-.504 1.664-.447 3.242-.23 4.85.1.757.458 1.04 1.22 1.064-.24-1.314-.624-2.557-.188-3.862l6.41 2.04.192-.177-1.35-3.54C7.38 8.47 6.6 7.6 5.47 7.086c-1.407-.625-3.033.172-3.236 1.603zm2.804 3.757c-.048.38-.126.776-.055 1.14.04.204.342.358.527.534l.51-.717-.646-1.025c-.03-.04-.33.03-.335.068zM4.388 1.05l5.674 3.6-.102.17-7.738-3.36c.456-.556 1.407-.853 2.166-.4zm14.302.402-7.712 3.35-.103-.166 5.52-3.533a1.81 1.81 0 0 1 2.305.349zM6.93.56l3.26 3.762-.113.137L5.04.254C5.572-.15 6.344-.1 6.93.56zm8.982-.337-5.006 4.182-.14-.132 3.206-3.7c.556-.62 1.176-.7 1.94-.35z" fill="#9E1D22"></path></svg>